<?xml version="1.0" encoding="utf-8"?>
<!-- Generator: Adobe Illustrator 16.0.4, SVG Export Plug-In . SVG Version: 6.00 Build 0)  -->
<!DOCTYPE svg PUBLIC "-//W3C//DTD SVG 1.1//EN" "http://www.w3.org/Graphics/SVG/1.1/DTD/svg11.dtd">
<svg version="1.1" xmlns="http://www.w3.org/2000/svg" xmlns:xlink="http://www.w3.org/1999/xlink" x="0px" y="0px" width="526px"
	 height="341px" viewBox="0 0 526 341" enable-background="new 0 0 526 341" xml:space="preserve">
<g id="detailed">
	<g id="Layer_1_1_">
		<path fill="#E5E6E7" d="M478.003,78.743c-2.06-5.449-4.01-10.579-5.79-15.35c-0.05-0.14-4.95-14.01-10.53-22.28
			c-5.658-8.38-39.29-21.46-40.738-22.02c-1.37-0.48-33.48-11.58-46.181-11.58h-0.291c-12.699,0.18-17.25,5.46-17.41,5.66
			l-12.828,14.01l0.5,0.92l-1.312,0.71l-0.26-0.47l1.069-1.16l-14.25-26.26c-0.319-0.6-0.959-0.95-1.66-0.92
			c-3.601,0.25-6.271,0.18-6.319,0.18h-118.02c-0.03,0-2.7,0.07-6.3-0.18c-0.68-0.04-1.33,0.32-1.66,0.91l-14.25,26.27l1.06,1.16
			l-0.25,0.47l-1.31-0.71l0.5-0.92l-12.81-13.98c-0.19-0.23-4.73-5.51-17.43-5.69h-0.29c-12.7,0-44.81,11.1-46.21,11.58
			c-1.42,0.56-35.05,13.64-40.71,22.02c-5.58,8.271-10.48,22.141-10.521,22.271c-1.79,4.78-3.729,9.91-5.8,15.35
			c-21.87,57.67-58.48,154.179-44.24,212.509c0.07,0.342,7.06,34.08,46.95,47.649c1.17,0.4,2.36,0.591,3.54,0.591
			c2.01,0,3.98-0.56,5.71-1.648c7.43-4.711,21.67-15.092,33.65-31.791c16.23-22.631,49.47-45.09,49.81-45.319l0.14-0.129
			c3.29-3.712,19.01-10.74,54.94-10.74h129c35.93,0,51.65,7.028,54.93,10.74l0.15,0.129c0.34,0.229,33.58,22.688,49.81,45.319
			c11.98,16.699,26.222,27.08,33.65,31.791c2.75,1.738,6.12,2.129,9.25,1.059c39.89-13.569,46.88-47.309,46.94-47.608
			C536.483,232.912,499.873,136.403,478.003,78.743"/>
		<path fill="none" stroke="#C4C6C8" stroke-width="1.5" stroke-miterlimit="10" d="M327.503,249.104c46,0,55.5,11,55.5,11
			s33.5,22.5,50,45.5c12.062,16.812,26.529,27.214,33.438,31.593c2.564,1.627,5.729,1.969,8.604,0.992
			c39.944-13.593,46.456-47.085,46.456-47.085c15.5-63.5-28.843-170.796-50-227.458c0,0-4.849-13.83-10.441-22.111
			c-5.591-8.28-40.362-21.735-40.362-21.735S386.984,8.09,374.484,8.265c-12.5,0.174-16.867,5.417-16.867,5.417l-37.744,41.199
			c-5.693,6.432-11.891,10.114-20.48,10.114h-72.779c-8.59,0-14.787-3.683-20.481-10.114l-37.744-41.199
			c0,0-4.368-5.243-16.868-5.417c-12.5-0.175-46.213,11.532-46.213,11.532S70.535,33.252,64.943,41.533
			c-5.591,8.281-10.44,22.111-10.44,22.111c-21.157,56.662-65.5,163.959-50,227.459c0,0,6.512,33.491,46.456,47.084
			c2.876,0.977,6.04,0.635,8.606-0.992c6.909-4.379,21.376-14.779,33.438-31.592c16.5-23,50-45.5,50-45.5s9.5-11,55.5-11H327.503
			L327.503,249.104z"/>
		<path fill="none" stroke="#C4C6C8" stroke-width="1.5" stroke-miterlimit="10" d="M344.078,28.459L329.322,1.275
			c-0.188-0.344-0.562-0.545-0.951-0.519c-3.682,0.246-6.368,0.18-6.368,0.18h-118c0,0-2.687,0.066-6.368-0.18
			c-0.391-0.026-0.765,0.175-0.951,0.519l-14.756,27.184"/>
	</g>
</g>
<g id="wireframe">
	<g id="Layer_2">
		<path fill="#FFFFFF" d="M328.062,249.236c46,0,55.5,11,55.5,11s33.5,22.5,50,45.5c12.061,16.813,26.528,27.215,33.438,31.594
			c2.566,1.627,5.73,1.969,8.605,0.99c39.944-13.593,46.457-47.084,46.457-47.084c15.5-63.5-28.845-170.797-50-227.459
			c0,0-4.851-13.83-10.441-22.11c-5.592-8.281-40.363-21.736-40.363-21.736S387.545,8.224,375.045,8.398
			c-12.5,0.174-16.869,5.417-16.869,5.417l-37.744,41.199c-5.692,6.432-11.891,10.115-20.479,10.115h-72.778
			c-8.59,0-14.787-3.684-20.481-10.115l-37.744-41.199c0,0-4.368-5.243-16.868-5.417c-12.5-0.175-46.213,11.532-46.213,11.532
			S71.094,33.386,65.503,41.667c-5.592,8.28-10.441,22.11-10.441,22.11c-21.157,56.662-65.5,163.959-50,227.459
			c0,0,6.512,33.491,46.456,47.084c2.876,0.979,6.04,0.637,8.606-0.99c6.909-4.379,21.376-14.779,33.438-31.594
			c16.5-23,50-45.5,50-45.5s9.5-11,55.5-11H328.062L328.062,249.236z"/>
		<path fill="none" stroke="#C4C6C8" stroke-width="2" stroke-miterlimit="10" d="M328.062,249.236c46,0,55.5,11,55.5,11
			s33.5,22.5,50,45.5c12.061,16.813,26.528,27.215,33.438,31.594c2.566,1.627,5.73,1.969,8.605,0.99
			c39.944-13.593,46.457-47.084,46.457-47.084c15.5-63.5-28.845-170.797-50-227.459c0,0-4.851-13.83-10.441-22.11
			c-5.592-8.281-40.363-21.736-40.363-21.736S387.545,8.224,375.045,8.398c-12.5,0.174-16.869,5.417-16.869,5.417l-37.744,41.199
			c-5.692,6.432-11.891,10.115-20.479,10.115h-72.778c-8.59,0-14.787-3.684-20.481-10.115l-37.744-41.199
			c0,0-4.368-5.243-16.868-5.417c-12.5-0.175-46.213,11.532-46.213,11.532S71.094,33.386,65.503,41.667
			c-5.592,8.28-10.441,22.11-10.441,22.11c-21.157,56.662-65.5,163.959-50,227.459c0,0,6.512,33.491,46.456,47.084
			c2.876,0.979,6.04,0.637,8.606-0.99c6.909-4.379,21.376-14.779,33.438-31.594c16.5-23,50-45.5,50-45.5s9.5-11,55.5-11H328.062
			L328.062,249.236z"/>
		<path fill="#FFFFFF" d="M183.487,28.593v75.51h160.15v-75.51L328.881,1.409c-0.186-0.344-0.561-0.545-0.951-0.519
			c-3.682,0.246-6.367,0.18-6.367,0.18h-116c0,0-2.687,0.066-6.368-0.18c-0.391-0.026-0.764,0.175-0.951,0.519L183.487,28.593z"/>
		<path fill="none" stroke="#C4C6C8" stroke-width="2" stroke-miterlimit="10" d="M183.487,28.593v75.51h160.15v-75.51
			L328.881,1.409c-0.186-0.344-0.561-0.545-0.951-0.519c-3.682,0.246-6.367,0.18-6.367,0.18h-116c0,0-2.687,0.066-6.368-0.18
			c-0.391-0.026-0.764,0.175-0.951,0.519L183.487,28.593z"/>
	</g>
</g>
<g id="simple">
	<g id="Layer_3">
		<path fill="#FFFFFF" d="M327.5,249.48c46,0,55.5,11,55.5,11s33.5,22.5,50,45.5c12.062,16.813,26.529,27.215,33.438,31.594
			c2.566,1.625,5.73,1.969,8.606,0.99c39.944-13.593,46.456-47.084,46.456-47.084c15.5-63.5-28.843-170.797-50-227.459
			c0,0-4.849-13.83-10.441-22.11c-5.591-8.281-40.362-21.736-40.362-21.736S386.982,8.467,374.482,8.643
			c-12.5,0.174-16.869,5.417-16.869,5.417L319.87,55.258c-5.694,6.432-11.892,10.115-20.481,10.115h-72.778
			c-8.59,0-14.787-3.684-20.481-10.115l-37.744-41.199c0,0-4.368-5.243-16.868-5.417c-12.5-0.175-46.213,11.532-46.213,11.532
			S70.532,33.629,64.941,41.911c-5.592,8.28-10.441,22.11-10.441,22.11C33.343,120.683-11,227.98,4.5,291.48
			c0,0,6.512,33.491,46.456,47.084c2.876,0.979,6.04,0.635,8.606-0.99c6.909-4.379,21.376-14.779,33.438-31.594
			c16.5-23,50-45.5,50-45.5s9.5-11,55.5-11H327.5L327.5,249.48z"/>
		<path fill="none" stroke="#2D2D2D" stroke-width="2" stroke-miterlimit="10" d="M327.5,249.48c46,0,55.5,11,55.5,11
			s33.5,22.5,50,45.5c12.062,16.813,26.529,27.215,33.438,31.594c2.566,1.625,5.73,1.969,8.606,0.99
			c39.944-13.593,46.456-47.084,46.456-47.084c15.5-63.5-28.843-170.797-50-227.459c0,0-4.849-13.83-10.441-22.11
			c-5.591-8.281-40.362-21.736-40.362-21.736S386.982,8.467,374.482,8.643c-12.5,0.174-16.869,5.417-16.869,5.417L319.87,55.258
			c-5.694,6.432-11.892,10.115-20.481,10.115h-72.778c-8.59,0-14.787-3.684-20.481-10.115l-37.744-41.199
			c0,0-4.368-5.243-16.868-5.417c-12.5-0.175-46.213,11.532-46.213,11.532S70.532,33.629,64.941,41.911
			c-5.592,8.28-10.441,22.11-10.441,22.11C33.343,120.683-11,227.98,4.5,291.48c0,0,6.512,33.491,46.456,47.084
			c2.876,0.979,6.04,0.635,8.606-0.99c6.909-4.379,21.376-14.779,33.438-31.594c16.5-23,50-45.5,50-45.5s9.5-11,55.5-11H327.5
			L327.5,249.48z"/>
		<path fill="none" stroke="#2D2D2D" stroke-width="2" stroke-miterlimit="10" d="M343.077,29.933v-1.1L328.316,1.652
			c-0.181-0.34-0.561-0.55-0.949-0.52c-3.682,0.25-6.37,0.18-6.37,0.18h-116c0,0-2.68,0.07-6.36-0.18c-0.4-0.03-0.77,0.18-0.96,0.52
			l-14.75,27.181v1.1"/>
	</g>
</g>
</svg>
