<?xml version="1.0" encoding="utf-8"?>
<!-- Generator: Adobe Illustrator 16.0.4, SVG Export Plug-In . SVG Version: 6.00 Build 0)  -->
<!DOCTYPE svg PUBLIC "-//W3C//DTD SVG 1.1//EN" "http://www.w3.org/Graphics/SVG/1.1/DTD/svg11.dtd">
<svg version="1.1" xmlns="http://www.w3.org/2000/svg" xmlns:xlink="http://www.w3.org/1999/xlink" x="0px" y="0px" width="105px"
	 height="105px" viewBox="0 0 105 105" enable-background="new 0 0 105 105" xml:space="preserve">
<g id="detailed">
	<path fill="#242323" d="M83.605,16.055c-18.686-18.687-48.983-18.687-67.67,0c-18.686,18.686-18.686,48.982,0,67.67
		c18.687,18.686,48.984,18.686,67.67,0C102.293,65.037,102.293,34.74,83.605,16.055"/>
	<path fill="#161616" d="M88.131,88.245c-19.939,19.94-52.26,19.94-72.2,0c-19.34-19.34-19.91-50.37-1.7-70.399
		c-16.96,18.779-16.4,47.77,1.7,65.88c18.69,18.689,48.99,18.689,67.67,0c18.689-18.69,18.689-48.98,0-67.67
		c-17.801-17.811-46.161-18.65-64.97-2.511c20.06-17.39,50.44-16.55,69.5,2.511C108.061,35.985,108.061,68.315,88.131,88.245"/>
	<g opacity="0.15">
		<g>
			<defs>
				<rect id="SVGID_1_" x="1.92" y="2.037" width="70.821" height="70.818"/>
			</defs>
			<clipPath id="SVGID_2_">
				<use xlink:href="#SVGID_1_"  overflow="visible"/>
			</clipPath>
			<path clip-path="url(#SVGID_2_)" fill="#FFFFFF" d="M72.741,7.905c-17.771-5.26-37.78-0.87-51.81,13.15
				c-14.02,14.02-18.41,34.04-13.15,51.8c-9.95-18.16-7.23-41.41,8.15-56.8C31.321,0.665,54.581-2.055,72.741,7.905"/>
		</g>
	</g>
	<path fill="#161616" d="M89.709,52.824c0-20.808-16.867-37.676-37.676-37.676c-20.809,0-37.677,16.868-37.677,37.676
		c0,20.809,16.868,37.676,37.677,37.676C72.842,90.5,89.709,73.633,89.709,52.824"/>
	<path fill="#383938" d="M84.93,52.151c0-18.168-14.729-32.896-32.896-32.896S19.137,33.983,19.137,52.151
		s14.728,32.896,32.896,32.896S84.93,70.319,84.93,52.151"/>
	<path fill="#161616" d="M52.033,17.737c-18.976,0-34.415,15.438-34.415,34.415c0,18.976,15.439,34.414,34.415,34.414
		c18.977,0,34.415-15.438,34.415-34.414C86.448,33.175,71.01,17.737,52.033,17.737 M52.033,77.123
		c-13.769,0-24.971-11.202-24.971-24.971c0-13.77,11.202-24.972,24.971-24.972c13.77,0,24.971,11.202,24.971,24.972
		C77.004,65.921,65.803,77.123,52.033,77.123 M78.221,48.295l6.351-1.123c0.069,0.452,0.124,0.908,0.174,1.366l-6.422,0.564
		C78.293,48.833,78.26,48.562,78.221,48.295 M77.965,46.816c-0.056-0.267-0.121-0.528-0.184-0.791l6.227-1.668
		c0.108,0.442,0.211,0.888,0.301,1.338L77.965,46.816z M77.395,44.575c-0.078-0.257-0.16-0.514-0.245-0.768l6.054-2.209
		c0.146,0.434,0.285,0.869,0.415,1.311L77.395,44.575z M76.635,42.399c-0.1-0.249-0.199-0.498-0.306-0.744l5.837-2.727
		c0.184,0.415,0.356,0.836,0.522,1.262L76.635,42.399z M75.691,40.297c-0.122-0.242-0.242-0.485-0.372-0.724l5.58-3.222
		c0.219,0.4,0.428,0.808,0.632,1.218L75.691,40.297z M74.565,38.277c-0.142-0.23-0.289-0.456-0.438-0.682l5.28-3.696
		c0.254,0.38,0.503,0.764,0.741,1.154L74.565,38.277z M73.269,36.366c-0.161-0.217-0.33-0.427-0.498-0.639l4.937-4.14
		c0.285,0.356,0.566,0.717,0.838,1.085L73.269,36.366z M71.807,34.578c-0.18-0.201-0.363-0.399-0.549-0.595l4.555-4.555
		c0.316,0.331,0.626,0.668,0.929,1.012L71.807,34.578z M70.197,32.923c-0.195-0.185-0.393-0.369-0.594-0.548l4.143-4.929
		c0.342,0.3,0.678,0.607,1.006,0.922L70.197,32.923z M68.453,31.412c-0.21-0.167-0.418-0.335-0.633-0.495l3.688-5.279
		c0.371,0.272,0.732,0.555,1.092,0.843L68.453,31.412z M66.59,30.058c-0.227-0.149-0.455-0.298-0.687-0.44l3.224-5.583
		c0.391,0.237,0.774,0.487,1.154,0.741L66.59,30.058z M64.607,28.863c-0.234-0.127-0.473-0.245-0.711-0.364l2.724-5.842
		c0.407,0.202,0.812,0.409,1.208,0.627L64.607,28.863z M62.539,27.86c-0.246-0.107-0.496-0.208-0.748-0.309l2.201-6.057
		c0.428,0.168,0.852,0.342,1.27,0.526L62.539,27.86z M60.383,27.037c-0.258-0.086-0.517-0.169-0.777-0.247l1.666-6.224
		c0.441,0.129,0.878,0.268,1.311,0.415L60.383,27.037z M58.155,26.403c-0.262-0.062-0.522-0.128-0.789-0.184l1.12-6.344
		c0.449,0.09,0.895,0.192,1.336,0.3L58.155,26.403z M55.889,25.964c-0.266-0.038-0.531-0.07-0.799-0.101l0.564-6.423
		c0.454,0.05,0.907,0.104,1.355,0.173L55.889,25.964z M53.596,25.731c-0.27-0.017-0.541-0.024-0.812-0.031v-6.444
		c0.461,0.01,0.92,0.028,1.376,0.057L53.596,25.731z M51.284,25.7c-0.271,0.007-0.543,0.015-0.812,0.03l-0.564-6.418
		c0.456-0.028,0.915-0.047,1.376-0.057V25.7z M48.979,25.863c-0.271,0.03-0.541,0.062-0.81,0.103l-1.12-6.352
		c0.451-0.069,0.908-0.124,1.365-0.174L48.979,25.863z M46.69,26.223c-0.261,0.055-0.519,0.118-0.778,0.181l-1.667-6.228
		c0.439-0.106,0.88-0.209,1.326-0.298L46.69,26.223z M44.463,26.79c-0.261,0.078-0.519,0.161-0.776,0.247l-2.201-6.057
		c0.433-0.147,0.87-0.285,1.311-0.415L44.463,26.79z M42.277,27.552c-0.251,0.101-0.501,0.2-0.748,0.309l-2.723-5.839
		c0.419-0.185,0.843-0.359,1.27-0.526L42.277,27.552z M40.172,28.498c-0.238,0.12-0.477,0.238-0.711,0.364l-3.221-5.579
		c0.397-0.218,0.801-0.425,1.207-0.627L40.172,28.498z M38.166,29.617c-0.232,0.143-0.46,0.29-0.687,0.439l-3.692-5.282
		c0.38-0.255,0.764-0.503,1.155-0.741L38.166,29.617z M36.249,30.916c-0.215,0.16-0.424,0.329-0.634,0.495l-4.145-4.933
		c0.358-0.286,0.72-0.568,1.091-0.842L36.249,30.916z M34.464,32.375c-0.201,0.179-0.398,0.362-0.594,0.547l-4.554-4.554
		c0.329-0.315,0.663-0.623,1.005-0.923L34.464,32.375z M32.811,33.983c-0.186,0.195-0.37,0.393-0.549,0.595l-4.935-4.138
		c0.303-0.345,0.613-0.682,0.929-1.013L32.811,33.983z M31.297,35.727c-0.168,0.213-0.337,0.423-0.498,0.639l-5.276-3.693
		c0.271-0.368,0.552-0.728,0.837-1.084L31.297,35.727z M29.94,37.595c-0.149,0.226-0.296,0.452-0.438,0.683l-5.583-3.225
		c0.238-0.391,0.486-0.774,0.74-1.153L29.94,37.595z M28.747,39.573c-0.129,0.237-0.249,0.48-0.371,0.724l-5.84-2.728
		c0.204-0.41,0.412-0.817,0.632-1.218L28.747,39.573z M27.738,41.655c-0.107,0.245-0.206,0.494-0.306,0.743l-6.054-2.209
		c0.167-0.425,0.34-0.846,0.523-1.262L27.738,41.655z M26.918,43.808c-0.085,0.254-0.168,0.51-0.245,0.768l-6.224-1.667
		c0.129-0.44,0.268-0.877,0.415-1.311L26.918,43.808z M26.286,46.024c-0.063,0.264-0.128,0.525-0.183,0.792l-6.345-1.122
		c0.09-0.449,0.193-0.895,0.301-1.337L26.286,46.024z M25.846,48.294c-0.039,0.268-0.072,0.539-0.103,0.809l-6.422-0.564
		c0.05-0.458,0.105-0.914,0.174-1.366L25.846,48.294z M25.612,50.597c-0.016,0.267-0.023,0.533-0.031,0.8h-6.443
		c0.01-0.456,0.027-0.911,0.056-1.364L25.612,50.597z M25.582,52.896c0.008,0.271,0.015,0.543,0.031,0.812l-6.418,0.565
		c-0.029-0.456-0.046-0.915-0.057-1.377H25.582z M25.744,55.202c0.031,0.271,0.063,0.541,0.103,0.809l-6.352,1.123
		c-0.069-0.452-0.123-0.908-0.174-1.366L25.744,55.202z M26.104,57.49c0.054,0.262,0.119,0.521,0.181,0.779l-6.227,1.667
		c-0.107-0.438-0.209-0.88-0.298-1.325L26.104,57.49z M26.67,59.72c0.077,0.258,0.16,0.514,0.245,0.769l-6.054,2.209
		c-0.147-0.435-0.286-0.87-0.415-1.312L26.67,59.72z M27.429,61.896c0.101,0.255,0.203,0.509,0.312,0.759l-5.839,2.723
		c-0.185-0.419-0.359-0.844-0.527-1.271L27.429,61.896z M28.379,64.012c0.12,0.238,0.238,0.478,0.365,0.711l-5.58,3.222
		c-0.218-0.397-0.425-0.802-0.627-1.207L28.379,64.012z M29.499,66.02c0.144,0.234,0.294,0.467,0.446,0.695l-5.283,3.691
		c-0.257-0.382-0.507-0.77-0.747-1.163L29.499,66.02z M30.803,67.945c0.16,0.214,0.328,0.422,0.494,0.632l-4.936,4.14
		c-0.285-0.355-0.566-0.716-0.837-1.084L30.803,67.945z M32.261,69.726c0.178,0.2,0.36,0.396,0.544,0.591l-4.549,4.56
		c-0.317-0.331-0.626-0.668-0.929-1.011L32.261,69.726z M33.866,71.377c0.196,0.185,0.393,0.369,0.594,0.548l-4.139,4.935
		c-0.341-0.302-0.676-0.609-1.005-0.924L33.866,71.377z M35.61,72.889c0.214,0.17,0.427,0.342,0.646,0.504l-3.695,5.275
		c-0.37-0.273-0.733-0.556-1.092-0.843L35.61,72.889z M37.486,74.252c0.223,0.147,0.448,0.292,0.675,0.432l-3.219,5.588
		c-0.391-0.239-0.774-0.487-1.154-0.74L37.486,74.252z M39.458,75.439c0.236,0.128,0.478,0.247,0.719,0.368l-2.729,5.841
		c-0.406-0.202-0.81-0.409-1.207-0.627L39.458,75.439z M41.534,76.446c0.248,0.107,0.499,0.208,0.75,0.308l-2.206,6.055
		c-0.428-0.167-0.852-0.342-1.27-0.525L41.534,76.446z M43.693,77.269c0.255,0.085,0.512,0.168,0.77,0.245l-1.666,6.225
		c-0.441-0.129-0.877-0.269-1.31-0.415L43.693,77.269z M45.913,77.901c0.259,0.061,0.516,0.126,0.778,0.179l-1.12,6.346
		c-0.445-0.089-0.886-0.19-1.325-0.298L45.913,77.901z M48.169,78.338c0.268,0.039,0.538,0.072,0.809,0.104l-0.564,6.422
		c-0.458-0.051-0.914-0.105-1.366-0.174L48.169,78.338z M50.472,78.573c0.27,0.016,0.541,0.022,0.812,0.03v6.443
		c-0.461-0.01-0.92-0.027-1.376-0.057L50.472,78.573z M52.784,78.604c0.271-0.008,0.542-0.016,0.812-0.03l0.564,6.417
		c-0.456,0.029-0.915,0.047-1.376,0.057V78.604z M55.09,78.441c0.267-0.031,0.533-0.063,0.797-0.103l1.121,6.352
		c-0.447,0.068-0.899,0.122-1.354,0.173L55.09,78.441z M57.366,78.083c0.265-0.055,0.526-0.12,0.789-0.183l1.667,6.227
		c-0.443,0.108-0.887,0.211-1.337,0.301L57.366,78.083z M59.604,77.514c0.259-0.078,0.516-0.161,0.771-0.246l2.207,6.056
		c-0.434,0.146-0.871,0.286-1.312,0.415L59.604,77.514z M61.784,76.754c0.251-0.1,0.502-0.201,0.749-0.308l2.727,5.836
		c-0.418,0.185-0.842,0.358-1.27,0.526L61.784,76.754z M63.891,75.808c0.242-0.122,0.484-0.24,0.72-0.368l3.217,5.58
		c-0.397,0.219-0.801,0.426-1.208,0.627L63.891,75.808z M65.907,74.684c0.228-0.141,0.451-0.285,0.675-0.433l3.697,5.279
		c-0.379,0.254-0.764,0.502-1.152,0.739L65.907,74.684z M67.812,73.393c0.22-0.164,0.433-0.335,0.647-0.505l4.139,4.937
		c-0.357,0.288-0.721,0.569-1.092,0.843L67.812,73.393z M69.607,71.924c0.201-0.179,0.398-0.363,0.595-0.548l4.55,4.559
		c-0.33,0.314-0.664,0.622-1.006,0.924L69.607,71.924z M71.262,70.316c0.185-0.195,0.367-0.392,0.545-0.592l4.934,4.14
		c-0.302,0.344-0.611,0.68-0.928,1.011L71.262,70.316z M72.771,68.576c0.166-0.21,0.334-0.418,0.493-0.632l5.279,3.688
		c-0.271,0.368-0.552,0.729-0.836,1.084L72.771,68.576z M74.123,66.714c0.152-0.229,0.301-0.46,0.446-0.695l5.584,3.225
		c-0.24,0.393-0.491,0.78-0.747,1.163L74.123,66.714z M75.323,64.723c0.127-0.233,0.245-0.473,0.365-0.711l5.841,2.725
		c-0.201,0.406-0.408,0.811-0.626,1.208L75.323,64.723z M76.326,62.654c0.109-0.25,0.211-0.503,0.312-0.758l6.053,2.209
		c-0.167,0.429-0.342,0.853-0.527,1.271L76.326,62.654z M77.152,60.487c0.085-0.254,0.167-0.511,0.244-0.769l6.224,1.667
		c-0.129,0.441-0.268,0.877-0.413,1.311L77.152,60.487z M77.783,58.27c0.061-0.26,0.126-0.518,0.18-0.78l6.346,1.122
		c-0.09,0.445-0.191,0.887-0.299,1.325L77.783,58.27z M78.221,56.011c0.039-0.268,0.072-0.538,0.103-0.809l6.422,0.565
		c-0.05,0.458-0.104,0.914-0.174,1.366L78.221,56.011z M78.455,53.708c0.016-0.269,0.023-0.54,0.03-0.812h6.444
		c-0.01,0.462-0.028,0.921-0.058,1.377L78.455,53.708z M78.485,51.396c-0.008-0.267-0.015-0.533-0.03-0.799l6.417-0.565
		c0.029,0.453,0.046,0.908,0.058,1.364H78.485z"/>
</g>
<g id="wireframe">
	<path fill="#C0C0C0" d="M103.053,52.5c0-28.178-22.842-51.021-51.02-51.021C23.855,1.479,1.014,24.322,1.014,52.5
		c0,28.177,22.842,51.02,51.019,51.02C80.211,103.52,103.053,80.677,103.053,52.5"/>
	<circle fill="none" stroke="#2D2D2D" stroke-width="2" stroke-miterlimit="10" cx="52.033" cy="52.5" r="51.02"/>
	<path fill="#161616" d="M52.03,18.114c-18.976,0-34.415,15.438-34.415,34.415c0,18.976,15.439,34.414,34.415,34.414
		c18.978,0,34.415-15.438,34.415-34.414C86.445,33.553,71.008,18.114,52.03,18.114 M52.03,77.5
		c-13.769,0-24.971-11.202-24.971-24.971S38.261,27.559,52.03,27.559c13.771,0,24.972,11.202,24.972,24.971S65.801,77.5,52.03,77.5
		 M78.217,48.672l6.352-1.123c0.068,0.452,0.124,0.908,0.174,1.366L78.32,49.48C78.289,49.21,78.256,48.94,78.217,48.672
		 M77.961,47.193c-0.055-0.266-0.121-0.528-0.183-0.791l6.228-1.668c0.107,0.443,0.209,0.888,0.299,1.338L77.961,47.193z
		 M77.391,44.952c-0.077-0.257-0.159-0.513-0.244-0.767l6.054-2.209c0.147,0.433,0.285,0.869,0.415,1.31L77.391,44.952z
		 M76.631,42.776c-0.099-0.249-0.199-0.498-0.305-0.744l5.837-2.726c0.183,0.415,0.356,0.836,0.522,1.261L76.631,42.776z
		 M75.688,40.674c-0.122-0.241-0.242-0.484-0.372-0.724l5.58-3.221c0.219,0.399,0.428,0.807,0.632,1.217L75.688,40.674z
		 M74.562,38.654c-0.143-0.23-0.289-0.456-0.438-0.681l5.279-3.697c0.254,0.38,0.503,0.764,0.741,1.155L74.562,38.654z
		 M73.266,36.743c-0.161-0.217-0.33-0.427-0.498-0.638l4.937-4.141c0.285,0.356,0.566,0.718,0.837,1.085L73.266,36.743z
		 M71.803,34.955c-0.178-0.201-0.362-0.398-0.547-0.595l4.554-4.554c0.315,0.331,0.626,0.668,0.929,1.011L71.803,34.955z
		 M70.194,33.3c-0.196-0.185-0.394-0.368-0.595-0.548l4.144-4.929c0.343,0.3,0.677,0.608,1.005,0.922L70.194,33.3z M68.45,31.789
		c-0.21-0.167-0.418-0.335-0.633-0.495l3.688-5.278c0.369,0.271,0.731,0.554,1.09,0.842L68.45,31.789z M66.588,30.436
		c-0.228-0.15-0.455-0.298-0.688-0.441l3.225-5.583c0.389,0.238,0.773,0.487,1.153,0.741L66.588,30.436z M64.604,29.24
		c-0.234-0.127-0.474-0.245-0.711-0.364l2.724-5.842c0.407,0.202,0.811,0.409,1.208,0.627L64.604,29.24z M62.536,28.237
		c-0.247-0.107-0.497-0.208-0.748-0.308l2.201-6.058c0.427,0.168,0.851,0.342,1.271,0.527L62.536,28.237z M60.379,27.414
		c-0.258-0.086-0.516-0.169-0.776-0.247l1.666-6.224c0.44,0.129,0.878,0.268,1.311,0.415L60.379,27.414z M58.152,26.78
		c-0.262-0.062-0.523-0.128-0.789-0.183l1.12-6.345c0.448,0.091,0.894,0.192,1.336,0.301L58.152,26.78z M55.885,26.341
		c-0.265-0.037-0.53-0.069-0.797-0.101l0.563-6.423c0.454,0.05,0.907,0.104,1.354,0.173L55.885,26.341z M53.594,26.108
		c-0.271-0.017-0.541-0.024-0.812-0.031v-6.444c0.461,0.011,0.92,0.028,1.376,0.058L53.594,26.108z M51.281,26.077
		c-0.271,0.007-0.543,0.015-0.812,0.03l-0.564-6.417c0.456-0.029,0.915-0.047,1.376-0.058V26.077z M48.975,26.24
		c-0.271,0.031-0.541,0.063-0.81,0.104l-1.12-6.353c0.451-0.069,0.908-0.124,1.365-0.174L48.975,26.24z M46.688,26.601
		c-0.261,0.054-0.519,0.118-0.778,0.18l-1.667-6.227c0.439-0.107,0.88-0.209,1.326-0.299L46.688,26.601z M44.46,27.167
		c-0.261,0.078-0.519,0.161-0.776,0.247l-2.201-6.057c0.433-0.147,0.87-0.285,1.311-0.415L44.46,27.167z M42.274,27.93
		c-0.251,0.1-0.501,0.199-0.748,0.308l-2.723-5.839c0.419-0.185,0.843-0.359,1.27-0.526L42.274,27.93z M40.169,28.875
		c-0.238,0.12-0.477,0.238-0.711,0.364l-3.221-5.579c0.397-0.218,0.801-0.425,1.207-0.627L40.169,28.875z M38.162,29.994
		c-0.232,0.144-0.46,0.29-0.687,0.44l-3.692-5.283c0.38-0.254,0.764-0.503,1.155-0.741L38.162,29.994z M36.245,31.293
		c-0.215,0.16-0.424,0.329-0.634,0.495l-4.145-4.932c0.358-0.287,0.72-0.569,1.091-0.842L36.245,31.293z M34.461,32.752
		c-0.201,0.18-0.398,0.362-0.594,0.547l-4.554-4.554c0.329-0.314,0.663-0.623,1.005-0.923L34.461,32.752z M32.807,34.36
		c-0.186,0.196-0.37,0.393-0.549,0.595l-4.935-4.138c0.303-0.344,0.613-0.681,0.929-1.012L32.807,34.36z M31.294,36.104
		c-0.168,0.212-0.337,0.422-0.498,0.638l-5.276-3.693c0.271-0.367,0.552-0.728,0.837-1.084L31.294,36.104z M29.938,37.973
		c-0.149,0.225-0.296,0.451-0.438,0.682l-5.583-3.224c0.238-0.392,0.486-0.775,0.74-1.154L29.938,37.973z M28.744,39.95
		c-0.129,0.238-0.249,0.481-0.371,0.724l-5.84-2.728c0.204-0.41,0.412-0.817,0.632-1.217L28.744,39.95z M27.735,42.032
		c-0.107,0.245-0.206,0.494-0.306,0.743l-6.054-2.209c0.167-0.424,0.34-0.845,0.523-1.261L27.735,42.032z M26.916,44.186
		c-0.085,0.254-0.168,0.509-0.245,0.767l-6.224-1.667c0.129-0.439,0.268-0.877,0.415-1.31L26.916,44.186z M26.283,46.401
		c-0.063,0.264-0.128,0.526-0.183,0.792l-6.345-1.122c0.09-0.449,0.193-0.894,0.301-1.337L26.283,46.401z M25.843,48.671
		c-0.039,0.269-0.072,0.539-0.103,0.81l-6.422-0.565c0.05-0.458,0.105-0.914,0.174-1.366L25.843,48.671z M25.609,50.975
		c-0.016,0.266-0.023,0.532-0.031,0.8h-6.443c0.01-0.457,0.027-0.912,0.056-1.365L25.609,50.975z M25.578,53.274
		c0.008,0.271,0.015,0.542,0.031,0.811l-6.418,0.565c-0.029-0.456-0.046-0.915-0.057-1.376H25.578z M25.741,55.579
		c0.031,0.271,0.063,0.541,0.103,0.81l-6.352,1.123c-0.069-0.452-0.123-0.908-0.174-1.366L25.741,55.579z M26.1,57.867
		c0.054,0.262,0.119,0.521,0.181,0.78l-6.227,1.667c-0.107-0.439-0.209-0.88-0.298-1.326L26.1,57.867z M26.667,60.098
		c0.077,0.258,0.16,0.513,0.245,0.768l-6.054,2.209c-0.147-0.434-0.286-0.87-0.415-1.311L26.667,60.098z M27.426,62.274
		c0.101,0.254,0.203,0.508,0.312,0.758l-5.839,2.723c-0.185-0.419-0.359-0.844-0.527-1.271L27.426,62.274z M28.376,64.39
		c0.12,0.237,0.238,0.477,0.365,0.711l-5.58,3.221c-0.218-0.397-0.425-0.801-0.627-1.207L28.376,64.39z M29.495,66.397
		c0.144,0.233,0.294,0.466,0.446,0.694l-5.283,3.691c-0.257-0.382-0.507-0.769-0.747-1.163L29.495,66.397z M30.8,68.322
		c0.16,0.214,0.328,0.422,0.494,0.632l-4.936,4.141c-0.285-0.356-0.566-0.717-0.837-1.084L30.8,68.322z M32.258,70.104
		c0.178,0.2,0.36,0.396,0.544,0.59l-4.549,4.56c-0.317-0.331-0.626-0.668-0.929-1.011L32.258,70.104z M33.863,71.754
		c0.196,0.186,0.393,0.369,0.594,0.549l-4.139,4.934c-0.341-0.301-0.676-0.609-1.005-0.923L33.863,71.754z M35.607,73.267
		c0.214,0.17,0.427,0.341,0.646,0.504l-3.695,5.274c-0.37-0.272-0.733-0.556-1.092-0.843L35.607,73.267z M37.483,74.629
		c0.223,0.147,0.448,0.292,0.675,0.433l-3.219,5.587c-0.391-0.239-0.774-0.487-1.154-0.74L37.483,74.629z M39.455,75.816
		c0.236,0.128,0.478,0.248,0.719,0.369l-2.729,5.84c-0.406-0.202-0.81-0.409-1.207-0.627L39.455,75.816z M41.531,76.823
		c0.248,0.108,0.499,0.208,0.75,0.308l-2.206,6.056c-0.428-0.167-0.852-0.342-1.27-0.526L41.531,76.823z M43.69,77.646
		c0.255,0.085,0.512,0.168,0.77,0.245l-1.666,6.224c-0.441-0.129-0.877-0.268-1.31-0.415L43.69,77.646z M45.91,78.278
		c0.259,0.061,0.516,0.126,0.778,0.179l-1.12,6.347c-0.445-0.09-0.886-0.191-1.325-0.299L45.91,78.278z M48.167,78.715
		c0.268,0.039,0.538,0.072,0.809,0.104l-0.564,6.422c-0.458-0.05-0.914-0.104-1.366-0.174L48.167,78.715z M50.469,78.95
		c0.27,0.016,0.541,0.023,0.812,0.031v6.442c-0.461-0.01-0.92-0.026-1.376-0.057L50.469,78.95z M52.781,78.981
		c0.271-0.008,0.542-0.017,0.811-0.031l0.565,6.417c-0.456,0.03-0.915,0.047-1.376,0.057V78.981z M55.088,78.818
		c0.266-0.031,0.532-0.063,0.797-0.103l1.121,6.352c-0.449,0.069-0.9,0.123-1.354,0.173L55.088,78.818z M57.363,78.46
		c0.266-0.055,0.525-0.12,0.789-0.183l1.667,6.227c-0.442,0.108-0.888,0.211-1.337,0.302L57.363,78.46z M59.602,77.892
		c0.259-0.078,0.516-0.161,0.771-0.246l2.205,6.055c-0.433,0.147-0.869,0.286-1.311,0.415L59.602,77.892z M61.781,77.131
		c0.251-0.1,0.502-0.2,0.749-0.308l2.728,5.836c-0.42,0.186-0.842,0.359-1.271,0.527L61.781,77.131z M63.889,76.186
		c0.24-0.122,0.482-0.241,0.719-0.369l3.217,5.581c-0.396,0.218-0.801,0.425-1.208,0.627L63.889,76.186z M65.904,75.062
		c0.227-0.142,0.451-0.286,0.674-0.434l3.698,5.279c-0.379,0.254-0.763,0.502-1.153,0.74L65.904,75.062z M67.809,73.771
		c0.22-0.164,0.433-0.335,0.646-0.505l4.141,4.936c-0.358,0.288-0.721,0.57-1.092,0.843L67.809,73.771z M69.604,72.301
		c0.202-0.179,0.399-0.362,0.595-0.548l4.549,4.56c-0.328,0.313-0.662,0.622-1.005,0.923L69.604,72.301z M71.26,70.693
		c0.184-0.195,0.365-0.391,0.543-0.591l4.935,4.139c-0.302,0.344-0.612,0.68-0.928,1.011L71.26,70.693z M72.768,68.953
		c0.166-0.21,0.334-0.418,0.494-0.632l5.279,3.688c-0.271,0.367-0.553,0.728-0.838,1.084L72.768,68.953z M74.12,67.091
		c0.152-0.229,0.302-0.46,0.446-0.694l5.584,3.224c-0.24,0.394-0.491,0.78-0.747,1.163L74.12,67.091z M75.32,65.101
		c0.127-0.234,0.245-0.474,0.365-0.711l5.841,2.724c-0.201,0.407-0.408,0.811-0.626,1.208L75.32,65.101z M76.323,63.031
		c0.108-0.25,0.211-0.503,0.312-0.758l6.054,2.209c-0.167,0.429-0.343,0.853-0.527,1.271L76.323,63.031z M77.149,60.864
		c0.085-0.254,0.167-0.51,0.244-0.768l6.224,1.667c-0.129,0.44-0.268,0.877-0.414,1.31L77.149,60.864z M77.78,58.647
		c0.062-0.26,0.126-0.519,0.181-0.781l6.344,1.122c-0.088,0.446-0.19,0.887-0.297,1.326L77.78,58.647z M78.217,56.389
		c0.039-0.269,0.072-0.538,0.104-0.81l6.422,0.566c-0.05,0.458-0.105,0.914-0.174,1.366L78.217,56.389z M78.452,54.085
		c0.015-0.269,0.022-0.54,0.03-0.811h6.443c-0.01,0.461-0.027,0.92-0.057,1.376L78.452,54.085z M78.482,51.774
		c-0.008-0.268-0.016-0.534-0.03-0.799l6.417-0.566c0.029,0.453,0.047,0.908,0.057,1.365H78.482z"/>
	<path fill="#959595" d="M77.002,52.529c0-13.791-11.18-24.972-24.971-24.972c-13.791,0-24.971,11.181-24.971,24.972
		S38.24,77.5,52.031,77.5C65.822,77.5,77.002,66.32,77.002,52.529"/>
</g>
<g id="simple">
	<circle fill="none" stroke="#2D2D2D" stroke-width="2" stroke-miterlimit="10" cx="52.033" cy="52.5" r="51.02"/>
	<path fill="#161616" d="M52.03,18.114c-18.976,0-34.415,15.438-34.415,34.415S33.054,86.943,52.03,86.943
		c18.978,0,34.415-15.438,34.415-34.414S71.008,18.114,52.03,18.114 M52.03,77.5c-13.769,0-24.971-11.201-24.971-24.971
		c0-13.769,11.202-24.971,24.971-24.971c13.771,0,24.972,11.202,24.972,24.971C77.002,66.299,65.801,77.5,52.03,77.5 M78.217,48.673
		l6.352-1.123c0.068,0.451,0.124,0.907,0.174,1.365L78.32,49.48C78.289,49.21,78.256,48.94,78.217,48.673 M77.961,47.193
		c-0.055-0.266-0.121-0.528-0.183-0.791l6.228-1.668c0.107,0.443,0.209,0.888,0.299,1.338L77.961,47.193z M77.391,44.952
		c-0.077-0.257-0.159-0.513-0.244-0.767l6.054-2.209c0.147,0.433,0.285,0.869,0.415,1.31L77.391,44.952z M76.631,42.776
		c-0.099-0.249-0.199-0.498-0.305-0.744l5.837-2.726c0.183,0.415,0.356,0.836,0.522,1.261L76.631,42.776z M75.688,40.675
		c-0.122-0.242-0.242-0.485-0.372-0.725l5.58-3.221c0.219,0.399,0.428,0.807,0.632,1.217L75.688,40.675z M74.562,38.654
		c-0.143-0.229-0.289-0.456-0.438-0.681l5.279-3.697c0.254,0.38,0.503,0.764,0.741,1.155L74.562,38.654z M73.266,36.743
		c-0.161-0.217-0.33-0.427-0.498-0.638l4.937-4.14c0.285,0.355,0.566,0.717,0.837,1.085L73.266,36.743z M71.803,34.955
		c-0.178-0.201-0.362-0.398-0.547-0.595l4.554-4.554c0.315,0.331,0.626,0.668,0.929,1.011L71.803,34.955z M70.194,33.301
		c-0.196-0.186-0.394-0.369-0.595-0.549l4.144-4.929c0.343,0.3,0.677,0.608,1.005,0.922L70.194,33.301z M68.45,31.789
		c-0.21-0.167-0.418-0.335-0.633-0.495l3.688-5.278c0.369,0.271,0.731,0.554,1.09,0.842L68.45,31.789z M66.588,30.436
		c-0.228-0.15-0.455-0.298-0.688-0.441l3.225-5.583c0.389,0.238,0.773,0.487,1.153,0.741L66.588,30.436z M64.604,29.24
		c-0.234-0.127-0.474-0.245-0.711-0.364l2.724-5.842c0.407,0.202,0.811,0.409,1.208,0.627L64.604,29.24z M62.536,28.237
		c-0.247-0.106-0.497-0.208-0.748-0.308l2.201-6.058c0.427,0.168,0.851,0.343,1.271,0.527L62.536,28.237z M60.379,27.414
		c-0.258-0.086-0.516-0.169-0.776-0.247l1.666-6.224c0.44,0.129,0.878,0.268,1.311,0.415L60.379,27.414z M58.152,26.78
		c-0.262-0.062-0.523-0.128-0.789-0.183l1.12-6.345c0.448,0.091,0.894,0.192,1.336,0.301L58.152,26.78z M55.885,26.342
		c-0.265-0.038-0.53-0.07-0.797-0.102l0.563-6.423c0.454,0.05,0.907,0.105,1.354,0.173L55.885,26.342z M53.594,26.108
		c-0.271-0.016-0.541-0.024-0.812-0.031v-6.443c0.461,0.01,0.92,0.027,1.376,0.057L53.594,26.108z M51.281,26.077
		c-0.271,0.007-0.543,0.016-0.812,0.03l-0.564-6.417c0.456-0.029,0.915-0.047,1.376-0.057V26.077z M48.975,26.24
		c-0.271,0.031-0.541,0.063-0.81,0.104l-1.12-6.353c0.451-0.068,0.908-0.124,1.365-0.174L48.975,26.24z M46.688,26.601
		c-0.261,0.054-0.519,0.118-0.778,0.18l-1.667-6.227c0.439-0.107,0.88-0.209,1.326-0.298L46.688,26.601z M44.46,27.167
		c-0.261,0.078-0.519,0.161-0.776,0.247l-2.201-6.057c0.433-0.147,0.87-0.285,1.311-0.415L44.46,27.167z M42.274,27.93
		c-0.251,0.1-0.501,0.199-0.748,0.308l-2.723-5.839c0.419-0.184,0.843-0.359,1.27-0.526L42.274,27.93z M40.169,28.875
		c-0.238,0.12-0.477,0.238-0.711,0.364l-3.221-5.579c0.397-0.218,0.801-0.425,1.207-0.627L40.169,28.875z M38.162,29.994
		c-0.232,0.144-0.46,0.29-0.687,0.44l-3.692-5.283c0.38-0.254,0.764-0.503,1.155-0.741L38.162,29.994z M36.245,31.293
		c-0.215,0.16-0.424,0.329-0.634,0.495l-4.145-4.932c0.358-0.287,0.72-0.569,1.091-0.842L36.245,31.293z M34.461,32.752
		c-0.201,0.18-0.398,0.362-0.594,0.548l-4.554-4.555c0.329-0.314,0.663-0.623,1.005-0.923L34.461,32.752z M32.807,34.36
		c-0.186,0.196-0.37,0.393-0.549,0.595l-4.935-4.138c0.303-0.344,0.613-0.681,0.929-1.012L32.807,34.36z M31.294,36.104
		c-0.168,0.212-0.337,0.422-0.498,0.638l-5.276-3.692c0.271-0.368,0.552-0.729,0.837-1.084L31.294,36.104z M29.938,37.973
		c-0.149,0.225-0.296,0.452-0.438,0.682l-5.583-3.224c0.238-0.392,0.486-0.775,0.74-1.154L29.938,37.973z M28.744,39.95
		c-0.129,0.238-0.249,0.481-0.371,0.725l-5.84-2.729c0.204-0.41,0.412-0.817,0.632-1.217L28.744,39.95z M27.735,42.032
		c-0.107,0.245-0.206,0.494-0.306,0.743l-6.054-2.209c0.167-0.424,0.34-0.845,0.523-1.261L27.735,42.032z M26.916,44.186
		c-0.085,0.254-0.168,0.509-0.245,0.767l-6.224-1.667c0.129-0.439,0.268-0.877,0.415-1.31L26.916,44.186z M26.283,46.401
		c-0.063,0.264-0.128,0.526-0.183,0.792l-6.345-1.122c0.09-0.449,0.193-0.894,0.301-1.337L26.283,46.401z M25.843,48.672
		c-0.039,0.268-0.072,0.538-0.103,0.809l-6.422-0.565c0.05-0.458,0.105-0.914,0.174-1.365L25.843,48.672z M25.609,50.975
		c-0.016,0.266-0.023,0.533-0.031,0.8h-6.443c0.01-0.457,0.027-0.912,0.056-1.365L25.609,50.975z M25.578,53.274
		c0.008,0.271,0.015,0.542,0.031,0.811l-6.418,0.565c-0.029-0.456-0.046-0.915-0.057-1.376H25.578z M25.741,55.579
		c0.031,0.271,0.063,0.541,0.103,0.81l-6.352,1.123c-0.069-0.452-0.123-0.908-0.174-1.366L25.741,55.579z M26.1,57.867
		c0.054,0.262,0.119,0.521,0.181,0.78l-6.227,1.667c-0.107-0.439-0.209-0.88-0.298-1.326L26.1,57.867z M26.667,60.098
		c0.077,0.258,0.16,0.513,0.245,0.768l-6.054,2.209c-0.147-0.434-0.286-0.87-0.415-1.311L26.667,60.098z M27.426,62.274
		c0.101,0.254,0.203,0.508,0.312,0.758l-5.839,2.724c-0.185-0.42-0.359-0.845-0.527-1.272L27.426,62.274z M28.376,64.39
		c0.12,0.237,0.238,0.477,0.365,0.711l-5.58,3.221c-0.218-0.396-0.425-0.801-0.627-1.207L28.376,64.39z M29.495,66.397
		c0.144,0.234,0.294,0.466,0.446,0.695l-5.283,3.69c-0.257-0.382-0.507-0.769-0.747-1.163L29.495,66.397z M30.8,68.322
		c0.16,0.214,0.328,0.422,0.494,0.632l-4.936,4.141c-0.285-0.356-0.566-0.717-0.837-1.084L30.8,68.322z M32.258,70.104
		c0.178,0.2,0.36,0.396,0.544,0.59l-4.549,4.56c-0.317-0.33-0.626-0.668-0.929-1.011L32.258,70.104z M33.863,71.754
		c0.196,0.186,0.393,0.369,0.594,0.549l-4.139,4.934c-0.341-0.301-0.676-0.609-1.005-0.923L33.863,71.754z M35.607,73.267
		c0.214,0.17,0.427,0.341,0.646,0.504l-3.695,5.274c-0.37-0.272-0.733-0.556-1.092-0.843L35.607,73.267z M37.483,74.629
		c0.223,0.147,0.448,0.293,0.675,0.433l-3.219,5.587c-0.391-0.239-0.774-0.487-1.154-0.74L37.483,74.629z M39.455,75.816
		c0.236,0.128,0.478,0.248,0.719,0.369l-2.729,5.84c-0.406-0.202-0.81-0.409-1.207-0.627L39.455,75.816z M41.531,76.823
		c0.248,0.108,0.499,0.208,0.75,0.309l-2.206,6.055c-0.428-0.167-0.852-0.342-1.27-0.526L41.531,76.823z M43.69,77.646
		c0.255,0.085,0.512,0.168,0.77,0.245l-1.666,6.224c-0.441-0.129-0.877-0.268-1.31-0.415L43.69,77.646z M45.91,78.278
		c0.259,0.062,0.516,0.126,0.778,0.179l-1.12,6.347c-0.445-0.089-0.886-0.191-1.325-0.298L45.91,78.278z M48.167,78.716
		c0.268,0.038,0.538,0.071,0.809,0.103l-0.564,6.422c-0.458-0.05-0.914-0.104-1.366-0.174L48.167,78.716z M50.469,78.95
		c0.27,0.017,0.541,0.023,0.812,0.031v6.443c-0.461-0.011-0.92-0.027-1.376-0.058L50.469,78.95z M52.781,78.981
		c0.271-0.008,0.542-0.016,0.811-0.031l0.565,6.417c-0.456,0.03-0.915,0.047-1.376,0.058V78.981z M55.088,78.818
		c0.266-0.031,0.532-0.062,0.797-0.102l1.121,6.351c-0.449,0.069-0.9,0.123-1.354,0.173L55.088,78.818z M57.363,78.46
		c0.266-0.055,0.525-0.119,0.789-0.183l1.667,6.227c-0.442,0.108-0.888,0.212-1.337,0.302L57.363,78.46z M59.602,77.892
		c0.259-0.078,0.516-0.161,0.771-0.246l2.205,6.055c-0.433,0.147-0.869,0.286-1.311,0.415L59.602,77.892z M61.781,77.132
		c0.251-0.101,0.502-0.201,0.749-0.309l2.728,5.836c-0.42,0.186-0.842,0.359-1.271,0.527L61.781,77.132z M63.889,76.186
		c0.24-0.122,0.482-0.241,0.719-0.369l3.217,5.581c-0.396,0.218-0.801,0.425-1.208,0.627L63.889,76.186z M65.904,75.062
		c0.227-0.142,0.451-0.286,0.674-0.434l3.698,5.279c-0.379,0.254-0.763,0.502-1.153,0.74L65.904,75.062z M67.809,73.771
		c0.22-0.164,0.433-0.335,0.646-0.505l4.141,4.936c-0.358,0.288-0.721,0.57-1.092,0.843L67.809,73.771z M69.604,72.302
		c0.202-0.18,0.399-0.363,0.595-0.549l4.549,4.56c-0.328,0.313-0.662,0.622-1.005,0.923L69.604,72.302z M71.26,70.693
		c0.184-0.195,0.365-0.391,0.543-0.591l4.935,4.139c-0.302,0.344-0.612,0.681-0.928,1.011L71.26,70.693z M72.768,68.953
		c0.166-0.21,0.334-0.418,0.494-0.632l5.279,3.688c-0.271,0.367-0.553,0.728-0.838,1.084L72.768,68.953z M74.12,67.092
		c0.152-0.229,0.302-0.46,0.446-0.695l5.584,3.224c-0.24,0.394-0.491,0.78-0.747,1.163L74.12,67.092z M75.32,65.101
		c0.127-0.234,0.245-0.474,0.365-0.711l5.841,2.724c-0.201,0.407-0.408,0.812-0.626,1.208L75.32,65.101z M76.323,63.031
		c0.108-0.25,0.211-0.503,0.312-0.758l6.054,2.209c-0.167,0.429-0.343,0.853-0.527,1.271L76.323,63.031z M77.149,60.864
		c0.085-0.254,0.167-0.51,0.244-0.768l6.224,1.667c-0.129,0.44-0.268,0.877-0.414,1.31L77.149,60.864z M77.78,58.647
		c0.062-0.26,0.126-0.519,0.181-0.781l6.344,1.122c-0.088,0.446-0.19,0.887-0.297,1.326L77.78,58.647z M78.217,56.389
		c0.039-0.269,0.072-0.538,0.104-0.81l6.422,0.566c-0.05,0.458-0.105,0.914-0.174,1.366L78.217,56.389z M78.452,54.085
		c0.015-0.269,0.022-0.54,0.03-0.811h6.443c-0.01,0.461-0.027,0.92-0.057,1.376L78.452,54.085z M78.482,51.774
		c-0.008-0.267-0.016-0.534-0.03-0.799l6.417-0.566c0.029,0.453,0.047,0.908,0.057,1.365H78.482z"/>
</g>
</svg>
